<svg xmlns="http://www.w3.org/2000/svg" viewBox="0 0 96 96" role="img" aria-labelledby="title desc">
  <title id="title">FinDesk mark</title>
  <desc id="desc">A blue rounded square with a white ledger-shaped F.</desc>
  <rect width="96" height="96" rx="22" fill="#1769E0"/>
  <path d="M29 24c0-3.3 2.7-6 6-6h36c3.3 0 6 2.7 6 6v2c0 3.3-2.7 6-6 6H47v11h21c3.3 0 6 2.7 6 6v1c0 3.3-2.7 6-6 6H47v18c0 3.3-2.7 6-6 6h-6c-3.3 0-6-2.7-6-6V24z" fill="#FFFFFF"/>
  <rect x="53" y="63" width="21" height="6" rx="3" fill="#BFD8FF"/>
</svg>
